<?xml version="1.0" encoding="UTF-8"?>
<svg id="Layer_1" data-name="Layer 1" xmlns="http://www.w3.org/2000/svg" viewBox="0 0 409.65 413.26">
  <defs>
    <style>
      .cls-1 {
        fill: #1a1a1a;
      }

      .cls-2 {
        fill: #faa41a;
      }

      .cls-3 {
        fill: #1b1b1b;
      }
    </style>
  </defs>
  <path class="cls-3" d="M5.41,0h398.84c2.99,0,5.41,2.42,5.41,5.41v402.45c0,2.99-2.42,5.41-5.41,5.41h-134.66c-1.1,0-2.18-.31-3.08-.95-2.78-2.01-6.39-5.18-9.43-9.86-8.54-13.15-5.66-27.62-4.81-31.23,2.83-12,10.41-19.27,21.62-30.03,14.01-13.45,21.81-15.12,27.63-27.63,1.95-4.19,5.17-11.37,2.4-18.02-2.22-5.33-7.26-7.85-18.02-12.01-24.5-9.49-40.84-13.21-40.85-13.21-5.51-1.26-12.51-2.73-20.74-4.15-4.69-.81-6.16-6.75-2.39-9.65,2.28-1.75,4.78-3.57,7.52-5.41,14.94-10.05,27.97-14.75,37.24-18.02,19.93-7.04,36.03-9.24,48.05-10.81,13.89-1.82,25.08-2.04,39.64-2.4,9.49-.24,17.81-.22,24.59-.11,3.02.05,5.44-2.39,5.44-5.4V29.45c0-2.99-2.43-5.42-5.43-5.41l-351.99,1.17c-2.98,0-5.39,2.43-5.39,5.41v184.71c0,3.11,2.65,5.53,5.76,5.36,31.22-1.7,57.15.92,75.93,3.96,22.63,3.67,43.14,7.16,67.27,19.22,30.03,15.01,43.63,23.57,50.46,37.24,1.35,2.7,2.35,5.27,3.1,7.55.67,2.05.1,4.19-1.34,5.59-.78.76-3.59,3.13-3.83,3.24-3.3,1.46-4.8,2.62-18.75,8.85-12.52,5.59-23.9,8.93-46.65,15.62-1.6.47-4.56,1.38-8.57,2.18-6.78,1.34-11.29,1.16-31.87,5.43-22.11,4.59-33.17,6.89-45.05,11.81,0,0-21.46,8.94-42.05,27.63-3.27,2.97-7.07,6.81-10.21,12.61-2.9,5.35-4.14,10.33-4.73,13.76-.05.32-.08.62-.08.94v9.92c0,2.99-2.42,5.41-5.41,5.41s-5.41-2.42-5.41-5.4C.13,272.64.06,139.02,0,5.41,0,2.42,2.42,0,5.41,0Z"/>
  <circle class="cls-2" cx="202.42" cy="139.33" r="53.86"/>
  <path class="cls-1" d="M62.87,123.34c2.7.97,6.39,2.24,10.81,3.6,5.95,1.84,12.5,3.87,21.22,5.61,13.51,2.69,23.62,3.61,26.75,3.67,2.3.04,3.03.33,6.13.58,2.15.46,4.57.37,7.96.98,3.43.62,8.47.93,14.87,1.73,13.87,1.73,13.55.69,21.47,2.1,5.35.95,10.44,1.89,16.52,4.66,4.99,2.27,9.41,4.94,12.42,6.78,2.86,1.58,5.29,2.17,8.22,3.2,2.6.26,3.81.45,5.19.53,2.49.14,3.88.35,6.01,0,1.86-.31,3.41-.89,5.56-1.95,9.28-4.59,14.12-10.94,14.97-11.86.29-.31.28-.39,2.8-3.3,4.4-5.09,8.67-8.65,9.26-9.31,5.27-5.92,13.22-11.58,17.27-14.42,11.96-8.36,17.44-11.31,30.93-19.97,18.78-12.06,24.21-16.67,38.29-23.43,4.47-2.14,8.24-3.75,10.81-4.81-.17.89-.52,2.32-1.35,3.9-.94,1.8-2.06,2.97-2.7,3.6-7.85,7.75-13.06,10.66-13.06,10.66-.37.21-11.21,8.2-32.89,24.18,0,0-21.96,16.19-36.04,29.58-3.82,3.63-6.63,6.79-8.71,9.31-1.75,2.12-3.94,4.94-6.16,8.26-4.98,7.46-5.91,11.14-9.16,16.97-2.24,4-5.88,9.58-11.86,15.62-.58.66-1.81,1.87-3.75,2.55-3.24,1.13-6.4.83-6.81.65-1.14-.5-2.92-1.14-6.26-3.8-3.25-2.6-2.85-2.7-5.86-5.41-1.28-1.15-3.52-3.63-6.91-6.61-.85-.75-2.71-2.96-8.56-6.61-5.59-3.48-7.18-5.08-10.36-6.61-6.09-2.94-10.62-5.68-13.97-6.46-18.04-4.2-34.84-8.86-34.84-8.86-19.66-3.34-32.89-6.23-42.65-9.16-16.71-5.02-17.62-6.96-22.17-9.36-.28-.15-1.67-1.12-2.45-2.05-1.15-1.36-1.16-3.28-.95-4.76Z"/>
</svg>